<svg width="400" height="320" viewBox="0 0 400 320" xmlns="http://www.w3.org/2000/svg">
  <!-- Background -->
  <rect width="400" height="320" fill="#ffffff" rx="16"/>
  
  <!-- Simplified cityscape -->
  <rect x="80" y="120" width="25" height="100" fill="#e2e8f0" rx="4"/>
  <rect x="120" y="100" width="20" height="120" fill="#cbd5e1" rx="4"/>
  <rect x="160" y="130" width="25" height="90" fill="#e2e8f0" rx="4"/>
  <rect x="280" y="110" width="30" height="110" fill="#cbd5e1" rx="4"/>
  <rect x="320" y="90" width="25" height="130" fill="#e2e8f0" rx="4"/>
  
  <!-- Clean car in motion -->
  <g transform="translate(200, 180)">
    <rect x="0" y="10" width="50" height="25" fill="#3b82f6" rx="12"/>
    <rect x="8" y="5" width="34" height="15" fill="#60a5fa" rx="7"/>
    <circle cx="12" cy="40" r="5" fill="#64748b"/>
    <circle cx="38" cy="40" r="5" fill="#64748b"/>
    <!-- Subtle motion -->
    <path d="M-12 20 L-4 20" stroke="#3b82f6" stroke-width="2" stroke-linecap="round" opacity="0.4"/>
    <path d="M-8 25 L-4 25" stroke="#3b82f6" stroke-width="2" stroke-linecap="round" opacity="0.3"/>
  </g>
  
  <!-- Work symbol -->
  <g transform="translate(120, 50)">
    <rect x="0" y="8" width="35" height="25" fill="#10b981" rx="6"/>
    <rect x="12" y="4" width="11" height="8" fill="#059669" rx="2"/>
  </g>
  
  <!-- Location dots -->
  <circle cx="100" cy="260" r="8" fill="#ef4444" opacity="0.8"/>
  <circle cx="300" cy="260" r="8" fill="#ef4444" opacity="0.8"/>
  
  <!-- Clean road -->
  <rect x="0" y="240" width="400" height="12" fill="#f1f5f9"/>
  <rect x="0" y="244" width="400" height="2" fill="#e2e8f0"/>
  
  <!-- Freedom arrow -->
  <path d="M240 80 L260 70 L260 75 L280 75 L280 85 L260 85 L260 90 Z" fill="#10b981" opacity="0.6"/>
  
  <!-- Minimal decorative elements -->
  <circle cx="350" cy="50" r="4" fill="#fbbf24" opacity="0.3"/>
  <circle cx="60" cy="80" r="5" fill="#3b82f6" opacity="0.2"/>
</svg>