<svg width="400" height="320" viewBox="0 0 400 320" xmlns="http://www.w3.org/2000/svg">
  <!-- Background -->
  <rect width="400" height="320" fill="#ffffff" rx="16"/>
  
  <!-- Work picto -->
  <g transform="translate(100, 80)">
    <circle cx="30" cy="30" r="25" fill="#10b981" opacity="0.1"/>
    <rect x="15" y="20" width="30" height="20" fill="#10b981" rx="4"/>
    <rect x="25" y="15" width="10" height="8" fill="#059669" rx="2"/>
    <circle cx="30" cy="5" r="8" fill="#34d399"/>
    <circle cx="30" cy="5" r="5" fill="#10b981"/>
  </g>
  
  <!-- Freedom/Mobility picto -->
  <g transform="translate(200, 60)">
    <circle cx="30" cy="30" r="25" fill="#3b82f6" opacity="0.1"/>
    <!-- Arrow indicating movement -->
    <path d="M15 30 L35 20 L35 25 L45 25 L45 35 L35 35 L35 40 Z" fill="#3b82f6"/>
    <!-- Person -->
    <circle cx="20" cy="15" r="5" fill="#60a5fa"/>
    <rect x="16" y="20" width="8" height="12" fill="#3b82f6" rx="2"/>
  </g>
  
  <!-- Independence picto -->
  <g transform="translate(280, 100)">
    <circle cx="30" cy="30" r="25" fill="#fbbf24" opacity="0.1"/>
    <!-- Key -->
    <rect x="20" y="25" width="15" height="4" fill="#fbbf24" rx="2"/>
    <circle cx="18" cy="27" r="6" fill="none" stroke="#fbbf24" stroke-width="3"/>
    <!-- Small teeth -->
    <rect x="32" y="23" width="2" height="3" fill="#fbbf24"/>
    <rect x="32" y="29" width="2" height="3" fill="#fbbf24"/>
  </g>
  
  <!-- Family picto -->
  <g transform="translate(120, 180)">
    <circle cx="30" cy="30" r="25" fill="#ef4444" opacity="0.1"/>
    <!-- Family silhouettes -->
    <circle cx="20" cy="20" r="4" fill="#ef4444"/>
    <rect x="17" y="24" width="6" height="10" fill="#ef4444" rx="1"/>
    <circle cx="30" cy="18" r="5" fill="#dc2626"/>
    <rect x="26" y="23" width="8" height="12" fill="#dc2626" rx="1"/>
    <circle cx="40" cy="22" r="3" fill="#f87171"/>
    <rect x="38" y="25" width="4" height="8" fill="#f87171" rx="1"/>
  </g>
  
  <!-- Opportunities picto -->
  <g transform="translate(250, 200)">
    <circle cx="30" cy="30" r="25" fill="#8b5cf6" opacity="0.1"/>
    <!-- Door opening -->
    <rect x="20" y="15" width="20" height="25" fill="none" stroke="#8b5cf6" stroke-width="2" rx="2"/>
    <rect x="35" y="15" width="8" height="25" fill="#8b5cf6" rx="2"/>
    <circle cx="37" cy="27" r="1" fill="white"/>
    <!-- Arrow going through -->
    <path d="M15 27 L25 22 L25 25 L30 25 L30 29 L25 29 L25 32 Z" fill="#a78bfa"/>
  </g>
  
  <!-- Central connecting element -->
  <circle cx="200" cy="160" r="8" fill="#64748b" opacity="0.2"/>
  
  <!-- Subtle connecting lines -->
  <path d="M130 110 Q165 135 200 160" stroke="#e2e8f0" stroke-width="2" fill="none" opacity="0.5"/>
  <path d="M230 90 Q215 125 200 160" stroke="#e2e8f0" stroke-width="2" fill="none" opacity="0.5"/>
  <path d="M310 130 Q255 145 200 160" stroke="#e2e8f0" stroke-width="2" fill="none" opacity="0.5"/>
  <path d="M150 210 Q175 185 200 160" stroke="#e2e8f0" stroke-width="2" fill="none" opacity="0.5"/>
  <path d="M280 230 Q240 195 200 160" stroke="#e2e8f0" stroke-width="2" fill="none" opacity="0.5"/>
</svg>