<svg width="30" height="19" viewBox="0 0 30 19" fill="none" xmlns="http://www.w3.org/2000/svg">
<path d="M6.85876 18.1152C5.69076 18.1152 4.52276 17.9712 3.35476 17.6832C2.20276 17.3952 1.19476 16.9872 0.330758 16.4592L2.05876 12.8832C2.73076 13.3312 3.47476 13.6752 4.29076 13.9152C5.12276 14.1552 5.93076 14.2752 6.71476 14.2752C7.53076 14.2752 8.17876 14.1232 8.65876 13.8192C9.13876 13.5152 9.37876 13.0832 9.37876 12.5232C9.37876 12.0272 9.17876 11.6352 8.77876 11.3472C8.37876 11.0432 7.72276 10.8912 6.81076 10.8912H4.81876V7.89123L9.33076 3.01924L9.78676 4.65123H1.19476V0.979235H13.3388V3.95523L8.82676 8.82723L6.49876 7.50723H7.79476C9.89076 7.50723 11.4748 7.97923 12.5468 8.92323C13.6348 9.85123 14.1788 11.0512 14.1788 12.5232C14.1788 13.4832 13.9148 14.3872 13.3868 15.2352C12.8748 16.0832 12.0828 16.7792 11.0108 17.3232C9.93876 17.8512 8.55476 18.1152 6.85876 18.1152ZM14.4178 17.7792L20.3938 9.93123L20.2978 12.5232L14.5618 4.77123H19.6978L22.9138 9.35524L20.9938 9.45124L24.4018 4.77123H29.2258L23.4898 12.3552V9.85923L29.3938 17.7792H24.1858L20.8258 12.8832L22.7458 13.1472L19.3618 17.7792H14.4178Z" fill="#EEAC00"/>
</svg>
