<svg width="31" height="33" viewBox="0 0 31 33" fill="none" xmlns="http://www.w3.org/2000/svg">
<path d="M27.9263 2.67639H24.1763V1.42639C24.1763 1.09487 24.0446 0.776928 23.8102 0.542508C23.5757 0.308088 23.2578 0.176392 22.9263 0.176392C22.5947 0.176392 22.2768 0.308088 22.0424 0.542508C21.808 0.776928 21.6763 1.09487 21.6763 1.42639V2.67639H9.17627V1.42639C9.17627 1.09487 9.04457 0.776928 8.81015 0.542508C8.57573 0.308088 8.25779 0.176392 7.92627 0.176392C7.59475 0.176392 7.27681 0.308088 7.04239 0.542508C6.80797 0.776928 6.67627 1.09487 6.67627 1.42639V2.67639H2.92627C2.26323 2.67639 1.62734 2.93978 1.1585 3.40862C0.689661 3.87746 0.42627 4.51335 0.42627 5.17639V30.1764C0.42627 30.8394 0.689661 31.4753 1.1585 31.9442C1.62734 32.413 2.26323 32.6764 2.92627 32.6764H27.9263C28.5893 32.6764 29.2252 32.413 29.694 31.9442C30.1629 31.4753 30.4263 30.8394 30.4263 30.1764V5.17639C30.4263 4.51335 30.1629 3.87746 29.694 3.40862C29.2252 2.93978 28.5893 2.67639 27.9263 2.67639ZM6.67627 5.17639V6.42639C6.67627 6.75791 6.80797 7.07585 7.04239 7.31027C7.27681 7.54469 7.59475 7.67639 7.92627 7.67639C8.25779 7.67639 8.57573 7.54469 8.81015 7.31027C9.04457 7.07585 9.17627 6.75791 9.17627 6.42639V5.17639H21.6763V6.42639C21.6763 6.75791 21.808 7.07585 22.0424 7.31027C22.2768 7.54469 22.5947 7.67639 22.9263 7.67639C23.2578 7.67639 23.5757 7.54469 23.8102 7.31027C24.0446 7.07585 24.1763 6.75791 24.1763 6.42639V5.17639H27.9263V10.1764H2.92627V5.17639H6.67627ZM27.9263 30.1764H2.92627V12.6764H27.9263V30.1764ZM21.9356 16.792C22.0519 16.9081 22.1441 17.046 22.207 17.1977C22.2699 17.3495 22.3023 17.5121 22.3023 17.6764C22.3023 17.8407 22.2699 18.0033 22.207 18.1551C22.1441 18.3068 22.0519 18.4447 21.9356 18.5608L14.4356 26.0608C14.3196 26.177 14.1817 26.2692 14.0299 26.3321C13.8782 26.395 13.7155 26.4274 13.5513 26.4274C13.387 26.4274 13.2243 26.395 13.0726 26.3321C12.9208 26.2692 12.783 26.177 12.6669 26.0608L8.91689 22.3108C8.68234 22.0762 8.55057 21.7581 8.55057 21.4264C8.55057 21.0947 8.68234 20.7766 8.91689 20.542C9.15144 20.3075 9.46956 20.1757 9.80127 20.1757C10.133 20.1757 10.4511 20.3075 10.6856 20.542L13.5513 23.4092L20.1669 16.792C20.283 16.6758 20.4208 16.5836 20.5726 16.5207C20.7243 16.4578 20.887 16.4254 21.0513 16.4254C21.2155 16.4254 21.3782 16.4578 21.5299 16.5207C21.6817 16.5836 21.8196 16.6758 21.9356 16.792Z" fill="#EEAC00"/>
</svg>
