<svg width="31" height="23" viewBox="0 0 31 23" fill="none" xmlns="http://www.w3.org/2000/svg">
<path d="M16.9749 16.3023C18.597 15.2921 19.8458 13.781 20.5326 11.9978C21.2194 10.2145 21.3067 8.25609 20.7813 6.4188C20.2559 4.58151 19.1465 2.96532 17.6208 1.81473C16.095 0.66415 14.2361 0.0417786 12.3252 0.0417786C10.4142 0.0417786 8.5553 0.66415 7.02958 1.81473C5.50387 2.96532 4.39439 4.58151 3.86902 6.4188C3.34364 8.25609 3.43094 10.2145 4.11772 11.9978C4.80449 13.781 6.05337 15.2921 7.67541 16.3023C5.00455 17.1767 2.60142 18.8102 0.669092 21.1099C0.492432 21.32 0.406471 21.5917 0.430121 21.8651C0.45377 22.1386 0.585092 22.3915 0.795198 22.5682C1.0053 22.7448 1.27698 22.8308 1.55047 22.8072C1.82395 22.7835 2.07684 22.6522 2.2535 22.4421C4.84934 19.3431 8.42688 17.6371 12.3187 17.6371C16.2105 17.6371 19.7881 19.3431 22.3917 22.4421C22.5683 22.6522 22.8212 22.7835 23.0947 22.8072C23.3682 22.8308 23.6399 22.7448 23.85 22.5682C24.0601 22.3915 24.1914 22.1386 24.215 21.8651C24.2387 21.5917 24.1527 21.32 23.9761 21.1099C22.0424 18.8102 19.6393 17.1767 16.9749 16.3023ZM5.59305 8.84203C5.59305 7.51183 5.9875 6.21149 6.72652 5.10546C7.46555 3.99944 8.51595 3.13739 9.7449 2.62834C10.9739 2.11929 12.3262 1.9861 13.6308 2.24561C14.9355 2.50512 16.1339 3.14568 17.0745 4.08628C18.0151 5.02688 18.6556 6.22528 18.9151 7.52992C19.1746 8.83457 19.0414 10.1869 18.5324 11.4158C18.0233 12.6448 17.1613 13.6952 16.0553 14.4342C14.9492 15.1732 13.6489 15.5677 12.3187 15.5677C10.5356 15.5656 8.82607 14.8564 7.56521 13.5955C6.30435 12.3347 5.5951 10.6252 5.59305 8.84203ZM25.1699 3.35804C25.9073 5.09232 26.2873 6.9575 26.2873 8.84203C26.2873 10.7266 25.9073 12.5917 25.1699 14.326C25.0903 14.5126 24.9576 14.6716 24.7884 14.7834C24.6191 14.8951 24.4208 14.9547 24.2179 14.9546C24.0467 14.9548 23.878 14.9124 23.7272 14.8313C23.5763 14.7502 23.4479 14.6329 23.3536 14.4899C23.2592 14.347 23.2018 14.1828 23.1865 14.0122C23.1713 13.8416 23.1986 13.6699 23.266 13.5125C23.8942 12.0355 24.218 10.447 24.218 8.84203C24.218 7.23704 23.8942 5.64854 23.266 4.17159C23.1581 3.91912 23.1549 3.63413 23.2572 3.37932C23.3594 3.12452 23.5587 2.92076 23.8112 2.81288C24.0636 2.70499 24.3486 2.70182 24.6034 2.80406C24.8582 2.9063 25.062 3.10557 25.1699 3.35804ZM30.4262 8.84203C30.4311 11.2944 29.9342 13.7219 28.966 15.9751C28.8528 16.2193 28.6488 16.4098 28.3975 16.506C28.1461 16.6023 27.8671 16.5969 27.6197 16.4909C27.3723 16.3848 27.1759 16.1866 27.0723 15.9381C26.9687 15.6897 26.966 15.4107 27.0647 15.1603C27.9173 13.1629 28.3568 11.0137 28.3568 8.84203C28.3568 6.67035 27.9173 4.52113 27.0647 2.5238C27.0065 2.39821 26.974 2.26222 26.9693 2.12386C26.9646 1.98551 26.9876 1.84762 27.0372 1.71834C27.0867 1.58907 27.1616 1.47105 27.2576 1.37127C27.3536 1.27149 27.4686 1.19198 27.5958 1.13745C27.723 1.08292 27.8599 1.05447 27.9984 1.0538C28.1368 1.05313 28.274 1.08024 28.4017 1.13353C28.5295 1.18682 28.6453 1.26521 28.7422 1.36405C28.8391 1.46289 28.9152 1.58018 28.966 1.70896C29.9342 3.96217 30.4311 6.38963 30.4262 8.84203Z" fill="#EEAC00"/>
</svg>
