<svg width="36" height="22" viewBox="0 0 36 22" fill="none" xmlns="http://www.w3.org/2000/svg">
<path d="M30.4535 10.7324C30.1512 10.7331 29.8494 10.7583 29.5512 10.8076L28.7556 8.73789C29.3125 8.61007 29.8821 8.54541 30.4535 8.54514C30.7435 8.54514 31.0217 8.42991 31.2268 8.22482C31.4319 8.01972 31.5471 7.74155 31.5471 7.45149C31.5471 7.16144 31.4319 6.88327 31.2268 6.67817C31.0217 6.47308 30.7435 6.35785 30.4535 6.35785H27.8397L26.0064 1.59095C25.9271 1.3845 25.787 1.20697 25.6047 1.08177C25.4224 0.956564 25.2064 0.889579 24.9853 0.889648H20.6107C20.3206 0.889648 20.0425 1.00487 19.8374 1.20997C19.6323 1.41507 19.5171 1.69324 19.5171 1.98329C19.5171 2.27334 19.6323 2.55151 19.8374 2.75661C20.0425 2.96171 20.3206 3.07693 20.6107 3.07693H24.2347L25.4965 6.35785H21.7043C19.1753 6.35785 17.1247 6.94705 15.7754 8.0612C15.4579 8.31734 15.0751 8.47958 14.6702 8.52958C14.2653 8.57959 13.8546 8.51537 13.4843 8.34418C12.0379 7.68663 5.18078 4.89921 4.57655 4.66271L3.79596 4.35649C3.57845 4.2614 3.34815 4.19876 3.11244 4.17057C2.85747 4.17119 2.61072 4.26087 2.41487 4.42411C2.21901 4.58736 2.08634 4.81391 2.0398 5.0646C1.99327 5.31528 2.03578 5.57435 2.16 5.79702C2.28422 6.01968 2.48233 6.19195 2.72009 6.28403C2.78298 6.30864 9.17121 8.78574 12.5806 10.3346C13.3243 10.6729 14.1475 10.7973 14.9579 10.6937C15.7683 10.5901 16.5338 10.2626 17.1685 9.74814C17.8328 9.20132 19.1603 8.54514 21.7057 8.54514H24.2785C22.682 9.82674 21.5266 11.5758 20.9743 13.5472C20.842 13.9999 20.5657 14.3971 20.1872 14.6786C19.8088 14.9601 19.3489 15.1105 18.8773 15.107H11.7522C11.4812 13.7793 10.7268 12.5995 9.63536 11.7963C8.54391 10.9932 7.19312 10.6239 5.84487 10.7601C4.49663 10.8963 3.24698 11.5283 2.33821 12.5335C1.42943 13.5387 0.92627 14.8455 0.92627 16.2006C0.92627 17.5557 1.42943 18.8626 2.33821 19.8678C3.24698 20.873 4.49663 21.5049 5.84487 21.6411C7.19312 21.7773 8.54391 21.4081 9.63536 20.6049C10.7268 19.8018 11.4812 18.622 11.7522 17.2943H18.8773C19.8258 17.2964 20.7492 16.9892 21.5075 16.4194C22.2658 15.8495 22.8177 15.0481 23.0796 14.1364C23.3524 13.1666 23.8139 12.2603 24.4377 11.4693C25.0614 10.6782 25.8352 10.0181 26.7146 9.52668L27.5102 11.595C26.4018 12.3045 25.5864 13.3899 25.2137 14.6521C24.841 15.9143 24.936 17.2686 25.4813 18.4664C26.0266 19.6641 26.9856 20.6251 28.1823 21.1728C29.379 21.7205 30.733 21.8182 31.996 21.4481C33.2589 21.078 34.346 20.2648 35.0577 19.1577C35.7694 18.0507 36.058 16.7241 35.8705 15.4215C35.683 14.1189 35.0319 12.9276 34.0369 12.0662C33.0418 11.2049 31.7695 10.7313 30.4535 10.7324ZM6.39336 17.2943H9.48563C9.22764 18.024 8.72001 18.639 8.05243 19.0306C7.38486 19.4222 6.60034 19.5652 5.83754 19.4343C5.07473 19.3034 4.38274 18.9071 3.88388 18.3154C3.38503 17.7236 3.11142 16.9746 3.11142 16.2006C3.11142 15.4267 3.38503 14.6776 3.88388 14.0859C4.38274 13.4942 5.07473 13.0978 5.83754 12.967C6.60034 12.8361 7.38486 12.9791 8.05243 13.3707C8.72001 13.7623 9.22764 14.3773 9.48563 15.107H6.39336C6.10331 15.107 5.82514 15.2222 5.62004 15.4273C5.41494 15.6324 5.29972 15.9106 5.29972 16.2006C5.29972 16.4907 5.41494 16.7688 5.62004 16.9739C5.82514 17.179 6.10331 17.2943 6.39336 17.2943ZM30.4535 19.4815C29.7833 19.4807 29.1295 19.2747 28.5799 18.8911C28.0303 18.5076 27.6114 17.965 27.3794 17.3362C27.1475 16.7075 27.1136 16.0228 27.2824 15.3742C27.4512 14.7257 27.8146 14.1444 28.3236 13.7085L29.4323 16.593C29.5363 16.8638 29.7437 17.0822 30.0088 17.2001C30.2739 17.3181 30.575 17.3259 30.8458 17.2218C31.1166 17.1178 31.3351 16.9104 31.453 16.6453C31.5709 16.3802 31.5787 16.0791 31.4747 15.8083L30.3646 12.9197H30.4535C31.3236 12.9197 32.1581 13.2654 32.7734 13.8807C33.3887 14.496 33.7344 15.3305 33.7344 16.2006C33.7344 17.0708 33.3887 17.9053 32.7734 18.5206C32.1581 19.1359 31.3236 19.4815 30.4535 19.4815Z" fill="#EEAC00"/>
</svg>
