<svg width="23" height="35" viewBox="0 0 23 35" fill="none" xmlns="http://www.w3.org/2000/svg">
<path d="M18.7596 0.168091H4.09294C3.12048 0.168091 2.18784 0.554399 1.50021 1.24203C0.812578 1.92967 0.42627 2.8623 0.42627 3.83476V30.7236C0.42627 31.6961 0.812578 32.6287 1.50021 33.3164C2.18784 34.004 3.12048 34.3903 4.09294 34.3903H18.7596C19.7321 34.3903 20.6647 34.004 21.3523 33.3164C22.04 32.6287 22.4263 31.6961 22.4263 30.7236V3.83476C22.4263 2.8623 22.04 1.92967 21.3523 1.24203C20.6647 0.554399 19.7321 0.168091 18.7596 0.168091ZM2.87071 7.50142H19.9818V27.057H2.87071V7.50142ZM4.09294 2.61253H18.7596C19.0838 2.61253 19.3946 2.7413 19.6238 2.97052C19.8531 3.19973 19.9818 3.5106 19.9818 3.83476V5.05698H2.87071V3.83476C2.87071 3.5106 2.99948 3.19973 3.22869 2.97052C3.45791 2.7413 3.76878 2.61253 4.09294 2.61253ZM18.7596 31.9459H4.09294C3.76878 31.9459 3.45791 31.8171 3.22869 31.5879C2.99948 31.3587 2.87071 31.0478 2.87071 30.7236V29.5014H19.9818V30.7236C19.9818 31.0478 19.8531 31.3587 19.6238 31.5879C19.3946 31.8171 19.0838 31.9459 18.7596 31.9459Z" fill="#EEAC00"/>
</svg>
