<svg width="26" height="33" viewBox="0 0 26 33" fill="none" xmlns="http://www.w3.org/2000/svg">
<path d="M23.654 30.0627H16.6285C17.8086 29.0089 18.9216 27.8822 19.9608 26.6892C23.86 22.2048 25.9268 17.4775 25.9268 13.0173C25.9268 9.70209 24.6098 6.52267 22.2656 4.17847C19.9214 1.83426 16.742 0.517303 13.4268 0.517303C10.1116 0.517303 6.93213 1.83426 4.58792 4.17847C2.24372 6.52267 0.926758 9.70209 0.926758 13.0173C0.926758 17.4775 2.98784 22.2048 6.89267 26.6892C7.93189 27.8822 9.04486 29.0089 10.2251 30.0627H3.19948C2.8981 30.0627 2.60906 30.1825 2.39595 30.3956C2.18285 30.6087 2.06312 30.8977 2.06312 31.1991C2.06312 31.5005 2.18285 31.7895 2.39595 32.0026C2.60906 32.2157 2.8981 32.3355 3.19948 32.3355H23.654C23.9554 32.3355 24.2445 32.2157 24.4576 32.0026C24.6707 31.7895 24.7904 31.5005 24.7904 31.1991C24.7904 30.8977 24.6707 30.6087 24.4576 30.3956C24.2445 30.1825 23.9554 30.0627 23.654 30.0627ZM3.19948 13.0173C3.19948 10.3049 4.277 7.70351 6.19498 5.78553C8.11297 3.86754 10.7143 2.79003 13.4268 2.79003C16.1392 2.79003 18.7405 3.86754 20.6585 5.78553C22.5765 7.70351 23.654 10.3049 23.654 13.0173C23.654 21.1466 15.7748 27.9321 13.4268 29.7787C11.0787 27.9321 3.19948 21.1466 3.19948 13.0173ZM19.1086 13.0173C19.1086 11.8935 18.7753 10.795 18.151 9.86065C17.5267 8.92628 16.6393 8.19803 15.6011 7.76798C14.5629 7.33794 13.4205 7.22542 12.3183 7.44466C11.2161 7.66389 10.2037 8.20503 9.4091 8.99965C8.61449 9.79426 8.07335 10.8067 7.85411 11.9088C7.63488 13.011 7.7474 14.1534 8.17744 15.1916C8.60748 16.2298 9.33574 17.1172 10.2701 17.7416C11.2045 18.3659 12.303 18.6991 13.4268 18.6991C14.9337 18.6991 16.3789 18.1005 17.4444 17.0349C18.51 15.9694 19.1086 14.5242 19.1086 13.0173ZM10.0177 13.0173C10.0177 12.343 10.2176 11.6839 10.5922 11.1233C10.9668 10.5627 11.4992 10.1257 12.1222 9.86771C12.7451 9.60968 13.4305 9.54217 14.0918 9.67371C14.7531 9.80525 15.3606 10.1299 15.8373 10.6067C16.3141 11.0835 16.6388 11.6909 16.7703 12.3522C16.9019 13.0135 16.8344 13.699 16.5763 14.3219C16.3183 14.9448 15.8814 15.4773 15.3207 15.8519C14.7601 16.2264 14.101 16.4264 13.4268 16.4264C12.5226 16.4264 11.6555 16.0672 11.0162 15.4279C10.3768 14.7886 10.0177 13.9214 10.0177 13.0173Z" fill="#EEAC00"/>
</svg>
