<svg width="36" height="32" viewBox="0 0 36 32" fill="none" xmlns="http://www.w3.org/2000/svg">
<path d="M17.1763 12.4006V23.7756C17.1763 24.1071 17.308 24.425 17.5424 24.6595C17.7768 24.8939 18.0947 25.0256 18.4263 25.0256C18.7578 25.0256 19.0757 24.8939 19.3102 24.6595C19.5446 24.425 19.6763 24.1071 19.6763 23.7756V12.4006C21.1938 12.0908 22.5423 11.2286 23.4603 9.98109C24.3782 8.73359 24.8003 7.18968 24.6446 5.64867C24.4889 4.10767 23.7666 2.67936 22.6177 1.64066C21.4688 0.601956 19.9751 0.0268555 18.4263 0.0268555C16.8774 0.0268555 15.3837 0.601956 14.2348 1.64066C13.0859 2.67936 12.3636 4.10767 12.2079 5.64867C12.0522 7.18968 12.4743 8.73359 13.3923 9.98109C14.3102 11.2286 15.6587 12.0908 17.1763 12.4006ZM18.4263 2.52558C19.1679 2.52558 19.893 2.74551 20.5097 3.15757C21.1263 3.56962 21.607 4.15529 21.8908 4.84052C22.1746 5.52574 22.2489 6.27974 22.1042 7.00717C21.9595 7.7346 21.6024 8.40278 21.0779 8.92723C20.5535 9.45168 19.8853 9.80883 19.1579 9.95352C18.4304 10.0982 17.6764 10.024 16.9912 9.74013C16.306 9.4563 15.7203 8.97565 15.3083 8.35897C14.8962 7.74228 14.6763 7.01726 14.6763 6.27558C14.6763 5.28102 15.0714 4.32719 15.7746 3.62393C16.4779 2.92067 17.4317 2.52558 18.4263 2.52558ZM35.9263 23.7756C35.9263 28.6475 26.9091 31.2756 18.4263 31.2756C9.94346 31.2756 0.92627 28.6475 0.92627 23.7756C0.92627 22.5662 1.52158 20.7865 4.36377 19.1803C6.27939 18.0959 8.91377 17.2631 11.9841 16.7709C12.1465 16.7452 12.3124 16.7518 12.4722 16.7903C12.6321 16.8287 12.7828 16.8983 12.9158 16.995C13.0488 17.0917 13.1614 17.2137 13.2472 17.3539C13.3331 17.4941 13.3905 17.6499 13.4161 17.8123C13.4418 17.9747 13.4352 18.1406 13.3967 18.3004C13.3583 18.4603 13.2887 18.611 13.192 18.744C13.0953 18.877 12.9733 18.9896 12.8331 19.0754C12.6929 19.1613 12.5371 19.2187 12.3747 19.2443C9.63408 19.685 7.21846 20.4365 5.59033 21.3615C4.21533 22.135 3.42627 23.0162 3.42627 23.7756C3.42627 25.8631 9.13252 28.7756 18.4263 28.7756C27.72 28.7756 33.4263 25.8631 33.4263 23.7756C33.4263 23.0162 32.6372 22.135 31.2622 21.3553C29.6278 20.4303 27.2185 19.6787 24.4778 19.2381C24.312 19.2164 24.1521 19.1617 24.0078 19.0771C23.8635 18.9926 23.7376 18.8799 23.6376 18.7458C23.5377 18.6117 23.4656 18.4589 23.4257 18.2965C23.3859 18.134 23.379 17.9652 23.4056 17.8001C23.4322 17.6349 23.4916 17.4768 23.5804 17.3351C23.6692 17.1933 23.7855 17.0708 23.9225 16.9748C24.0595 16.8789 24.2144 16.8114 24.3779 16.7763C24.5415 16.7413 24.7104 16.7394 24.8747 16.7709C27.945 17.2631 30.5794 18.0959 32.495 19.1803C35.331 20.7865 35.9263 22.5662 35.9263 23.7756Z" fill="#CC9300"/>
</svg>
