<svg width="31" height="31" viewBox="0 0 31 31" fill="none" xmlns="http://www.w3.org/2000/svg">
<path d="M28.9825 20.8202L21.9159 17.6537L21.8964 17.6447C21.5296 17.4878 21.1294 17.4248 20.7321 17.4615C20.3348 17.4981 19.9529 17.6333 19.6209 17.8547C19.5818 17.8805 19.5443 17.9085 19.5084 17.9387L15.8574 21.0512C13.5444 19.9277 11.1563 17.5577 10.0328 15.2747L13.1499 11.5681C13.1799 11.5306 13.2084 11.4931 13.2354 11.4526C13.452 11.1216 13.5834 10.7421 13.618 10.348C13.6525 9.95387 13.5891 9.55731 13.4334 9.19362V9.17562L10.2578 2.09707C10.0519 1.62197 9.69792 1.22619 9.24861 0.968824C8.7993 0.711457 8.27881 0.606305 7.76482 0.669064C5.73226 0.936526 3.86656 1.93473 2.51619 3.47723C1.16581 5.01973 0.423096 7.00104 0.426771 9.05112C0.426771 20.9612 10.1168 30.6513 22.0269 30.6513C24.077 30.655 26.0583 29.9122 27.6008 28.5619C29.1433 27.2115 30.1415 25.3458 30.409 23.3132C30.4719 22.7994 30.3669 22.279 30.1098 21.8298C29.8528 21.3805 29.4573 21.0263 28.9825 20.8202ZM22.0269 28.2513C16.9364 28.2457 12.056 26.221 8.45652 22.6215C4.857 19.022 2.83235 14.1416 2.82679 9.05112C2.82114 7.58635 3.34887 6.1696 4.3114 5.06546C5.27394 3.96131 6.60547 3.24528 8.05733 3.05108C8.05673 3.05707 8.05673 3.0631 8.05733 3.06908L11.2073 10.1191L8.10682 13.8302C8.07536 13.8664 8.04677 13.905 8.02132 13.9457C7.7956 14.292 7.66317 14.6909 7.63689 15.1035C7.61061 15.5161 7.69137 15.9285 7.87132 16.3007C9.23033 19.0802 12.0309 21.8597 14.8404 23.2172C15.2153 23.3955 15.6301 23.4735 16.0442 23.4435C16.4583 23.4135 16.8575 23.2766 17.2029 23.0462C17.2414 23.0203 17.2785 22.9922 17.3139 22.9622L20.9604 19.8512L28.0105 23.0087C28.0105 23.0087 28.0225 23.0087 28.027 23.0087C27.8351 24.4626 27.1202 25.7968 26.0158 26.7618C24.9115 27.7267 23.4934 28.2562 22.0269 28.2513Z" fill="#CC9300"/>
</svg>
