<svg width="31" height="27" viewBox="0 0 31 27" fill="none" xmlns="http://www.w3.org/2000/svg">
<path d="M28.1191 0.812012H2.73445C2.12241 0.812012 1.53544 1.05514 1.10267 1.48792C0.669889 1.9207 0.426758 2.50767 0.426758 3.1197V23.8889C0.426758 24.501 0.669889 25.0879 1.10267 25.5207C1.53544 25.9535 2.12241 26.1966 2.73445 26.1966H28.1191C28.7311 26.1966 29.3181 25.9535 29.7508 25.5207C30.1836 25.0879 30.4268 24.501 30.4268 23.8889V3.1197C30.4268 2.50767 30.1836 1.9207 29.7508 1.48792C29.3181 1.05514 28.7311 0.812012 28.1191 0.812012ZM28.1191 3.1197V7.73509H2.73445V3.1197H28.1191ZM28.1191 23.8889H2.73445V10.0428H28.1191V23.8889Z" fill="#CC9300"/>
</svg>
