<svg width="1260" height="86" viewBox="0 0 1260 86" fill="none" xmlns="http://www.w3.org/2000/svg">
<path d="M373.295 24.7756C369.192 21.4188 364.179 19.4205 358.928 19.049C355.881 18.9377 352.844 19.4732 350.012 20.6215C347.179 21.7697 344.612 23.5056 342.474 25.7186C340.336 27.9317 338.674 30.5735 337.593 33.4762C336.512 36.3788 336.037 39.4786 336.196 42.5785C336.196 56.4945 344.939 66.5531 358.928 66.5531C364.344 66.1298 369.511 64.0626 373.762 60.6188L371.343 81.8933C366.974 83.7621 362.296 84.769 357.558 84.8604C333.544 84.8604 316.758 68.007 316.758 43.083C316.758 19.1084 333.661 0.860421 357.558 0.860421C361.984 0.765709 366.378 1.64629 370.439 3.44184L373.295 24.7756Z" fill="#1D1D1B"/>
<path d="M464.659 42.8159C464.37 53.9801 459.811 64.5884 451.954 72.3809C444.096 80.1734 433.56 84.5341 422.591 84.5341C411.622 84.5341 401.086 80.1734 393.228 72.3809C385.37 64.5884 380.812 53.9801 380.523 42.8159C380.812 31.6516 385.37 21.0433 393.228 13.2508C401.086 5.45837 411.622 1.09766 422.591 1.09766C433.56 1.09766 444.096 5.45837 451.954 13.2508C459.811 21.0433 464.37 31.6516 464.659 42.8159ZM400.078 42.8159C400.232 47.3147 401.684 51.6679 404.251 55.3328C406.818 58.9978 410.388 61.8125 414.516 63.4263C418.643 65.0401 423.146 65.3816 427.463 64.4082C431.78 63.4348 435.72 61.1895 438.792 57.9523C441.865 54.715 443.933 50.6288 444.741 46.2029C445.548 41.7769 445.058 37.207 443.332 33.0624C441.607 28.9179 438.721 25.382 435.036 22.8954C431.35 20.4088 427.027 19.0814 422.605 19.0787C416.574 19.3302 410.869 21.9362 406.675 26.356C402.48 30.7758 400.118 36.67 400.078 42.8159Z" fill="#1D1D1B"/>
<path d="M473.373 2.67035H500.738C506.004 2.52454 511.246 3.4547 516.153 5.40589C521.061 7.35708 525.534 10.2897 529.31 14.0306C533.085 17.7715 536.086 22.2448 538.135 27.1863C540.185 32.1278 541.24 37.4372 541.24 42.801C541.24 48.1649 540.185 53.4743 538.135 58.4158C536.086 63.3573 533.085 67.8306 529.31 71.5715C525.534 75.3124 521.061 78.245 516.153 80.1962C511.246 82.1474 506.004 83.0776 500.738 82.9317H473.373V2.67035ZM492.928 66.0783H499.018C504.91 65.8636 510.49 63.3297 514.584 59.01C518.677 54.6904 520.965 48.9222 520.965 42.9197C520.965 36.9173 518.677 31.149 514.584 26.8294C510.49 22.5098 504.91 19.9759 499.018 19.7611H492.928V66.0783Z" fill="#1D1D1B"/>
<path d="M550.019 82.9318V2.67041H594.52L597.959 19.6425H569.457V33.4398H589.857V50.4118H569.457V66.0784H600.349L595.511 83.0505L550.019 82.9318Z" fill="#1D1D1B"/>
<path d="M649.396 23.8558C647.583 21.9431 645.403 20.4295 642.992 19.4088C640.581 18.3881 637.99 17.8819 635.379 17.9215C631.94 17.9215 626.636 20.0282 626.636 24.2415C626.636 36.9706 661.899 28.6922 661.899 58.156C661.899 76.1666 648.114 84.8604 631.678 84.8604C621.754 85.0863 612.072 81.7338 604.341 75.3952L615.999 60.1737C617.859 62.2855 620.151 63.9565 622.714 65.069C625.277 66.1814 628.048 66.7082 630.832 66.6124C634.854 66.6124 641.149 64.6244 641.149 59.4616C641.149 46.9699 605.886 54.4471 605.886 25.6657C606.177 9.70247 620.574 0.801025 634.825 0.801025C644.038 0.860356 652.954 4.12707 660.092 10.0585L649.396 23.8558Z" fill="#1D1D1B"/>
<path d="M701.475 2.67041H723.653C742.013 2.67041 755.477 9.22781 755.477 27.4758C755.559 31.7723 754.391 35.9974 752.12 39.6194C749.848 43.2414 746.575 46.0983 742.713 47.8304L763.987 78.3624L744.199 84.8011L721.234 46.9106H721.001V82.012L701.475 83.8516V2.67041ZM721.001 42.1038C729.394 42.6973 735.922 39.8785 735.922 30.4133C735.922 20.948 729.044 19.2864 721.001 19.6425V42.1038Z" fill="#1D1D1B"/>
<path d="M847.861 42.816C847.861 54.1715 843.43 65.0619 835.544 73.0914C827.657 81.121 816.961 85.6319 805.807 85.6319C794.654 85.6319 783.958 81.121 776.071 73.0914C768.184 65.0619 763.754 54.1715 763.754 42.816C763.754 31.4605 768.184 20.5701 776.071 12.5405C783.958 4.51095 794.654 0 805.807 0C816.961 0 827.657 4.51095 835.544 12.5405C843.43 20.5701 847.861 31.4605 847.861 42.816ZM783.28 42.816C783.434 47.3148 784.885 51.668 787.453 55.3329C790.02 58.9979 793.59 61.8126 797.718 63.4264C801.845 65.0402 806.348 65.3817 810.665 64.4083C814.982 63.4349 818.922 61.1896 821.994 57.9524C825.066 54.7151 827.135 50.6289 827.942 46.203C828.75 41.777 828.26 37.2071 826.534 33.0625C824.809 28.918 821.923 25.3821 818.237 22.8955C814.552 20.4089 810.229 19.0815 805.807 19.0788C799.776 19.3303 794.071 21.9363 789.876 26.3561C785.682 30.7759 783.32 36.6701 783.28 42.816Z" fill="#1D1D1B"/>
<path d="M921.505 55.0702C921.505 73.7929 907.138 84.7417 887.379 84.7417C868.99 84.7417 856.108 75.8402 856.108 56.4351V2.67033L875.663 0.801025V50.8865C875.663 59.4022 878.082 66.5531 887.845 66.5531C900.493 66.5531 901.98 57.6516 901.98 46.5545V2.67033L921.505 0.801025V55.0702Z" fill="#1D1D1B"/>
<path d="M975.158 23.8558C973.343 21.9445 971.163 20.4319 968.752 19.4112C966.341 18.3906 963.751 17.8836 961.14 17.9215C957.701 17.9215 952.397 20.0281 952.397 24.2415C952.397 36.9706 987.689 28.6922 987.689 58.156C987.689 76.1666 973.905 84.8604 957.468 84.8604C947.536 85.0831 937.846 81.7313 930.103 75.3951L941.76 60.1737C943.614 62.2848 945.901 63.9557 948.459 65.0682C951.017 66.1808 953.784 66.7079 956.564 66.6124C960.586 66.6124 966.91 64.6244 966.91 59.4616C966.91 46.9699 931.647 54.4471 931.647 25.6657C931.647 9.7618 946.219 0.860352 960.353 0.860352C969.575 0.920075 978.5 4.18636 985.649 10.1179L975.158 23.8558Z" fill="#1D1D1B"/>
<path d="M1039.04 23.8558C1037.22 21.9445 1035.04 20.4319 1032.63 19.4112C1030.22 18.3906 1027.63 17.8836 1025.02 17.9215C1021.58 17.9215 1016.28 20.0281 1016.28 24.2415C1016.28 36.9706 1051.57 28.6922 1051.57 58.156C1051.57 76.1666 1037.79 84.8604 1021.35 84.8604C1011.43 85.0863 1001.74 81.7338 994.013 75.3951L1005.67 60.1737C1007.52 62.2848 1009.81 63.9557 1012.37 65.0682C1014.93 66.1808 1017.69 66.7079 1020.48 66.6124C1024.5 66.6124 1030.82 64.6244 1030.82 59.4616C1030.82 46.9699 995.558 54.4471 995.558 25.6657C995.558 9.7618 1010.13 0.860352 1024.29 0.860352C1033.51 0.924447 1042.42 4.19061 1049.56 10.1179L1039.04 23.8558Z" fill="#1D1D1B"/>
<path d="M1060.98 82.9318V2.67041H1105.57L1109.01 19.6425H1080.54V33.4398H1100.94V50.4118H1080.54V66.0784H1111.43L1106.62 83.0505L1060.98 82.9318Z" fill="#1D1D1B"/>
<path d="M1150.63 0.801025L1193.12 80.7064L1173.24 84.801L1165.2 67.5916H1135.21L1127.28 84.801L1108.34 80.7064L1150.39 0.801025H1150.63ZM1139.93 52.7558H1160.83L1150.39 33.0836L1139.93 52.7558Z" fill="#1D1D1B"/>
<path d="M1260 55.0702C1260 73.7929 1245.63 84.7417 1225.88 84.7417C1207.49 84.7417 1194.63 75.8402 1194.63 56.4351V2.67033L1214.16 0.801025V50.8865C1214.16 59.4022 1216.58 66.5531 1226.34 66.5531C1238.99 66.5531 1240.48 57.6516 1240.48 46.5545V2.67033L1260 0.801025V55.0702Z" fill="#1D1D1B"/>
<path d="M40.3941 0.949463C51.1999 1.06694 61.5185 5.54422 69.0857 13.3988C76.6529 21.2534 80.8504 31.8436 80.7572 42.8456C80.8582 53.8527 76.6641 64.4506 69.0961 72.3116C61.5281 80.1726 51.205 84.654 40.3941 84.7714C29.5781 84.6618 19.2475 80.1839 11.6732 72.322C4.09888 64.4601 -0.0991949 53.8578 0.00178026 42.8456C-0.0914256 31.8386 4.1101 21.2439 11.6836 13.3884C19.257 5.53298 29.5832 1.05913 40.3941 0.949463ZM40.3941 65.3069C46.3039 65.2661 51.9715 62.9101 56.2204 58.7277C60.4694 54.5453 62.9735 48.8579 63.2131 42.8456C63.2131 36.6721 60.8043 30.7514 56.5167 26.3861C52.2291 22.0207 46.4139 19.5683 40.3503 19.5683C34.2868 19.5683 28.4715 22.0207 24.184 26.3861C19.8964 30.7514 17.4876 36.6721 17.4876 42.8456C17.7279 48.8732 20.2442 54.5736 24.5118 58.7583C28.7795 62.943 34.469 65.289 40.3941 65.3069Z" fill="#E6332A"/>
<path d="M134.206 0.949463C145.011 1.06694 155.33 5.54422 162.897 13.3988C170.465 21.2534 174.662 31.8437 174.569 42.8456C174.714 48.3372 173.777 53.8026 171.813 58.9193C169.849 64.036 166.898 68.7002 163.134 72.6365C159.37 76.5729 154.87 79.7016 149.899 81.8379C144.928 83.9742 139.587 85.0749 134.191 85.0749C128.795 85.0749 123.454 83.9742 118.483 81.8379C113.512 79.7016 109.012 76.5729 105.248 72.6365C101.485 68.7002 98.5337 64.036 96.5697 58.9193C94.6057 53.8026 93.6685 48.3372 93.8134 42.8456C93.7202 31.8386 97.9217 21.2439 105.495 13.3884C113.069 5.53298 123.395 1.05913 134.206 0.949463ZM134.206 65.3069C140.116 65.2661 145.783 62.9101 150.032 58.7277C154.281 54.5453 156.785 48.8579 157.025 42.8456C156.813 36.8237 154.315 31.1202 150.056 26.9361C145.797 22.752 140.11 20.4138 134.191 20.4138C128.273 20.4138 122.585 22.752 118.326 26.9361C114.067 31.1202 111.569 36.8237 111.358 42.8456C111.604 48.8605 114.115 54.5481 118.368 58.7297C122.622 62.9114 128.293 65.2665 134.206 65.3069Z" fill="#F39200"/>
<path d="M228.017 0.949463C238.823 1.06694 249.142 5.54422 256.709 13.3988C264.276 21.2534 268.474 31.8437 268.38 42.8456C268.525 48.3372 267.588 53.8026 265.624 58.9193C263.66 64.036 260.709 68.7002 256.945 72.6365C253.182 76.5729 248.681 79.7016 243.71 81.8379C238.739 83.9742 233.398 85.0749 228.003 85.0749C222.607 85.0749 217.266 83.9742 212.295 81.8379C207.324 79.7016 202.824 76.5729 199.06 72.6365C195.296 68.7002 192.345 64.036 190.381 58.9193C188.417 53.8026 187.48 48.3372 187.625 42.8456C187.532 31.8386 191.733 21.2439 199.307 13.3884C206.88 5.53298 217.206 1.05913 228.017 0.949463ZM228.017 65.3069C233.927 65.2661 239.595 62.9101 243.844 58.7277C248.093 54.5453 250.597 48.8579 250.836 42.8456C250.625 36.8237 248.127 31.1202 243.868 26.9361C239.609 22.752 233.921 20.4138 228.003 20.4138C222.084 20.4138 216.397 22.752 212.138 26.9361C207.879 31.1202 205.38 36.8237 205.169 42.8456C205.416 48.8605 207.926 54.5481 212.18 58.7297C216.434 62.9114 222.104 65.2665 228.017 65.3069Z" fill="#95C11F"/>
</svg>
