<svg width="30" height="34" viewBox="0 0 30 34" fill="none" xmlns="http://www.w3.org/2000/svg">
<path d="M30 17.0004C30 16.0824 29.6353 15.2019 28.9861 14.5527C28.337 13.9036 27.4565 13.5389 26.5385 13.5389H16.1538V12.2408C17.1442 11.9836 18.0213 11.4051 18.6477 10.596C19.2741 9.7869 19.6144 8.79289 19.6154 7.76965C19.6154 3.73119 15.8019 1.14802 15.6404 1.03984C15.4508 0.913337 15.2279 0.845825 15 0.845825C14.7721 0.845825 14.5492 0.913337 14.3596 1.03984C14.1981 1.14802 10.3846 3.73119 10.3846 7.76965C10.3856 8.79289 10.7259 9.7869 11.3523 10.596C11.9787 11.4051 12.8558 11.9836 13.8462 12.2408V13.5389H3.46154C2.54348 13.5389 1.66303 13.9036 1.01386 14.5527C0.364697 15.2019 0 16.0824 0 17.0004V20.3653C0.00118384 21.6241 0.405558 22.8493 1.15385 23.8615V29.6927C1.15385 30.6108 1.51854 31.4912 2.16771 32.1404C2.81687 32.7896 3.69733 33.1543 4.61538 33.1543H25.3846C26.3027 33.1543 27.1831 32.7896 27.8323 32.1404C28.4815 31.4912 28.8462 30.6108 28.8462 29.6927V23.8615C29.5944 22.8493 29.9988 21.6241 30 20.3653V17.0004ZM12.6923 7.76965C12.6923 5.81244 14.1346 4.24177 15 3.47302C15.8654 4.24177 17.3077 5.81244 17.3077 7.76965C17.3077 8.38169 17.0646 8.96866 16.6318 9.40144C16.199 9.83421 15.612 10.0773 15 10.0773C14.388 10.0773 13.801 9.83421 13.3682 9.40144C12.9354 8.96866 12.6923 8.38169 12.6923 7.76965ZM2.30769 17.0004C2.30769 16.6944 2.42926 16.4009 2.64565 16.1845C2.86203 15.9681 3.15552 15.8466 3.46154 15.8466H26.5385C26.8445 15.8466 27.138 15.9681 27.3544 16.1845C27.5707 16.4009 27.6923 16.6944 27.6923 17.0004V20.3653C27.6923 22.2764 26.1837 23.8716 24.3288 23.9221C23.8662 23.9352 23.4056 23.8554 22.9744 23.6874C22.5431 23.5194 22.1499 23.2666 21.818 22.944C21.4862 22.6214 21.2224 22.2356 21.0422 21.8092C20.8621 21.3829 20.7692 20.9248 20.7692 20.462C20.7692 20.1559 20.6477 19.8625 20.4313 19.6461C20.2149 19.4297 19.9214 19.3081 19.6154 19.3081C19.3094 19.3081 19.0159 19.4297 18.7995 19.6461C18.5831 19.8625 18.4615 20.1559 18.4615 20.462C18.4615 21.38 18.0968 22.2605 17.4477 22.9096C16.7985 23.5588 15.9181 23.9235 15 23.9235C14.0819 23.9235 13.2015 23.5588 12.5523 22.9096C11.9032 22.2605 11.5385 21.38 11.5385 20.462C11.5385 20.1559 11.4169 19.8625 11.2005 19.6461C10.9841 19.4297 10.6906 19.3081 10.3846 19.3081C10.0786 19.3081 9.78511 19.4297 9.56872 19.6461C9.35233 19.8625 9.23077 20.1559 9.23077 20.462C9.23096 20.9249 9.13828 21.3832 8.95822 21.8097C8.77816 22.2362 8.51438 22.6222 8.18248 22.945C7.85059 23.2677 7.45732 23.5206 7.02597 23.6887C6.59461 23.8568 6.13392 23.9366 5.67115 23.9235C3.81635 23.8716 2.30769 22.2764 2.30769 20.3653V17.0004ZM25.3846 30.8466H4.61538C4.30937 30.8466 4.01588 30.725 3.79949 30.5086C3.5831 30.2922 3.46154 29.9988 3.46154 29.6927V25.735C4.13695 26.0411 4.86649 26.2097 5.60769 26.2312C6.37883 26.2552 7.14685 26.123 7.86563 25.8427C8.5844 25.5624 9.2391 25.1397 9.79038 24.5999C10.0056 24.3901 10.2043 24.164 10.3846 23.9235C10.922 24.64 11.6188 25.2216 12.4199 25.6221C13.221 26.0227 14.1044 26.2312 15 26.2312C15.8956 26.2312 16.779 26.0227 17.5801 25.6221C18.3812 25.2216 19.078 24.64 19.6154 23.9235C19.7963 24.163 19.9954 24.3882 20.2111 24.5971C21.2844 25.6484 22.7283 26.2354 24.2308 26.2312C24.2856 26.2312 24.3404 26.2312 24.3952 26.2312C25.1354 26.2094 25.8639 26.0407 26.5385 25.735V29.6927C26.5385 29.9988 26.4169 30.2922 26.2005 30.5086C25.9841 30.725 25.6906 30.8466 25.3846 30.8466Z" fill="#CC9300"/>
</svg>
