<svg width="30" height="26" viewBox="0 0 30 26" fill="none" xmlns="http://www.w3.org/2000/svg">
<path d="M21.6964 0.145874C18.9308 0.145874 16.5094 1.33516 15 3.34543C13.4906 1.33516 11.0692 0.145874 8.30357 0.145874C6.10209 0.148355 3.99148 1.02399 2.4348 2.58067C0.878116 4.13736 0.00248134 6.24796 0 8.44944C0 17.8244 13.9004 25.4128 14.4924 25.7262C14.6484 25.8102 14.8228 25.8541 15 25.8541C15.1772 25.8541 15.3516 25.8102 15.5076 25.7262C16.0996 25.4128 30 17.8244 30 8.44944C29.9975 6.24796 29.1219 4.13736 27.5652 2.58067C26.0085 1.02399 23.8979 0.148355 21.6964 0.145874ZM15 23.5566C12.5545 22.1316 2.14286 15.6401 2.14286 8.44944C2.14498 6.81617 2.79474 5.25041 3.94964 4.09551C5.10453 2.94061 6.6703 2.29086 8.30357 2.28873C10.9085 2.28873 13.0955 3.67623 14.0089 5.9048C14.0897 6.10131 14.227 6.26939 14.4034 6.38768C14.5799 6.50597 14.7876 6.56912 15 6.56912C15.2124 6.56912 15.4201 6.50597 15.5966 6.38768C15.773 6.26939 15.9103 6.10131 15.9911 5.9048C16.9045 3.67221 19.0915 2.28873 21.6964 2.28873C23.3297 2.29086 24.8955 2.94061 26.0504 4.09551C27.2053 5.25041 27.855 6.81617 27.8571 8.44944C27.8571 15.6294 17.4429 22.1302 15 23.5566Z" fill="#CC9300"/>
</svg>
