<svg width="30" height="38" viewBox="0 0 30 38" fill="none" xmlns="http://www.w3.org/2000/svg">
<path d="M19.9979 5.83754C19.9979 4.84904 19.7048 3.88274 19.1556 3.06083C18.6064 2.23893 17.8259 1.59833 16.9126 1.22005C15.9994 0.841765 14.9945 0.742789 14.025 0.935636C13.0554 1.12848 12.1649 1.60449 11.4659 2.30346C10.767 3.00244 10.2909 3.89299 10.0981 4.86249C9.90526 5.832 10.0042 6.83691 10.3825 7.75017C10.7608 8.66342 11.4014 9.44399 12.2233 9.99317C13.0452 10.5424 14.0115 10.8355 15 10.8355C16.3255 10.8355 17.5968 10.3089 18.5341 9.37161C19.4714 8.43432 19.9979 7.16307 19.9979 5.83754ZM15 8.33651C14.5058 8.33651 14.0226 8.18995 13.6116 7.91536C13.2007 7.64077 12.8804 7.25048 12.6913 6.79385C12.5021 6.33723 12.4526 5.83477 12.5491 5.35001C12.6455 4.86526 12.8835 4.41999 13.233 4.0705C13.5825 3.72101 14.0277 3.48301 14.5125 3.38659C14.9972 3.29016 15.4997 3.33965 15.9563 3.52879C16.4129 3.71793 16.8032 4.03823 17.0778 4.44919C17.3524 4.86014 17.499 5.34329 17.499 5.83754C17.499 6.50031 17.2357 7.13593 16.767 7.60458C16.2984 8.07322 15.6628 8.33651 15 8.33651ZM29.1098 20.5268L22.0549 12.527C21.5858 11.9953 21.009 11.5695 20.3627 11.2778C19.7164 10.9862 19.0155 10.8354 18.3064 10.8355H11.6936C10.9845 10.8354 10.2836 10.9862 9.6373 11.2778C8.99101 11.5695 8.41418 11.9953 7.94511 12.527L0.890213 20.5268C0.317288 21.1127 -0.00242087 21.9004 1.38041e-05 22.7199C0.00244848 23.5394 0.326832 24.3251 0.903228 24.9077C1.47962 25.4902 2.26186 25.8229 3.08129 25.834C3.90072 25.8452 4.69171 25.5338 5.28371 24.9671L7.82953 22.9242L5.24622 32.7452C4.90407 33.5001 4.87583 34.3601 5.16771 35.1358C5.45959 35.9116 6.04768 36.5396 6.80261 36.8818C7.55754 37.2239 8.41748 37.2522 9.19323 36.9603C9.96899 36.6684 10.597 36.0803 10.9392 35.3254L15 28.3173L19.0608 35.3254C19.4183 36.055 20.0459 36.6166 20.8106 36.8911C21.5752 37.1656 22.4168 37.1314 23.1566 36.7957C23.8965 36.46 24.4764 35.8493 24.7735 35.093C25.0705 34.3368 25.0612 33.4947 24.7475 32.7452L22.1705 22.9242L24.7163 24.9671C25.3083 25.5338 26.0993 25.8452 26.9187 25.834C27.7381 25.8229 28.5204 25.4902 29.0968 24.9077C29.6732 24.3251 29.9976 23.5394 30 22.7199C30.0024 21.9004 29.6827 21.1127 29.1098 20.5268ZM27.3121 23.146C27.2541 23.2041 27.1852 23.2502 27.1093 23.2816C27.0335 23.3131 26.9522 23.3292 26.8701 23.3292C26.788 23.3292 26.7067 23.3131 26.6308 23.2816C26.555 23.2502 26.4861 23.2041 26.4281 23.146C26.3953 23.1148 26.3625 23.0835 26.3266 23.0554L20.7789 18.6073C20.5741 18.4438 20.3232 18.3489 20.0615 18.3359C19.7999 18.3228 19.5408 18.3924 19.3208 18.5346C19.1008 18.6769 18.9311 18.8847 18.8357 19.1287C18.7403 19.3727 18.724 19.6405 18.7891 19.8942L22.3626 33.4824C22.381 33.5548 22.4061 33.6254 22.4375 33.6932C22.4736 33.7678 22.4945 33.8487 22.499 33.9314C22.5035 34.0141 22.4915 34.0968 22.4637 34.1748C22.4359 34.2528 22.393 34.3245 22.3372 34.3857C22.2815 34.447 22.2142 34.4965 22.1391 34.5315C22.0641 34.5665 21.9828 34.5862 21.9001 34.5895C21.8174 34.5928 21.7348 34.5797 21.6572 34.5508C21.5796 34.5219 21.5086 34.4779 21.4481 34.4213C21.3877 34.3647 21.3391 34.2967 21.3052 34.2211C21.2899 34.1874 21.2727 34.1545 21.2537 34.1227L16.0808 25.2045C15.971 25.0152 15.8133 24.858 15.6236 24.7488C15.434 24.6395 15.2189 24.582 15 24.582C14.7811 24.582 14.566 24.6395 14.3764 24.7488C14.1867 24.858 14.029 25.0152 13.9192 25.2045L8.75259 34.1149C8.73355 34.1467 8.71634 34.1796 8.70104 34.2133C8.66635 34.2878 8.61731 34.3546 8.55675 34.4101C8.49618 34.4656 8.42527 34.5086 8.34807 34.5366C8.23189 34.5792 8.10568 34.5863 7.98544 34.5571C7.86521 34.5279 7.75636 34.4636 7.67271 34.3724C7.58906 34.2812 7.53437 34.1672 7.51557 34.0449C7.49678 33.9226 7.51473 33.7975 7.56714 33.6854C7.59861 33.6176 7.62371 33.547 7.64211 33.4746L11.2109 19.8942C11.276 19.6405 11.2597 19.3727 11.1643 19.1287C11.0689 18.8847 10.8992 18.6769 10.6792 18.5346C10.4592 18.3924 10.2001 18.3228 9.93847 18.3359C9.67682 18.3489 9.42588 18.4438 9.22114 18.6073L3.67344 23.0554C3.63751 23.0835 3.60472 23.1148 3.57192 23.146C3.51453 23.2065 3.44562 23.2549 3.36924 23.2884C3.29285 23.3218 3.21054 23.3397 3.12716 23.3408C3.04378 23.3419 2.96102 23.3264 2.88375 23.295C2.80648 23.2637 2.73627 23.2172 2.67725 23.1583C2.61823 23.0993 2.57161 23.0292 2.54012 22.952C2.50864 22.8748 2.49293 22.792 2.49392 22.7087C2.49491 22.6253 2.51259 22.5429 2.54591 22.4665C2.57922 22.3901 2.6275 22.3211 2.68791 22.2636C2.70665 22.2448 2.72383 22.2261 2.74101 22.2058L9.81933 14.1794C10.0539 13.9137 10.3424 13.7009 10.6655 13.5553C10.9887 13.4096 11.3391 13.3343 11.6936 13.3344H18.3064C18.6609 13.3343 19.0113 13.4096 19.3345 13.5553C19.6576 13.7009 19.9461 13.9137 20.1807 14.1794L27.259 22.2058C27.2762 22.2261 27.2934 22.2448 27.3121 22.2636C27.4289 22.3807 27.4945 22.5394 27.4945 22.7048C27.4945 22.8702 27.4289 23.0289 27.3121 23.146Z" fill="#CC9300"/>
</svg>
